# xmcd
#
# Track frame offsets:
#	150
#	24832
#	43505
#	61930
#	102305
#	114645
#	129532
#	145805
#	162515
#
# Disc length: 2358 seconds
# Revision: 0
# Processed by: cddbd v1.5.2PL0 Copyright (c) Steve Scherf et al.
# Submitted via: dBpowerAMP V12.0
#
DISCID=75093409
DTITLE=Taj Mahal - Satisfied 'N Tickled Too
DYEAR=1976
DGENRE=Blues
TTITLE0=Satisfied 'N Tickled Too
TTITLE1=New E-Z Rider Blues
TTITLE2=Black Man, Brown Man
TTITLE3=Baby Love
TTITLE4=Ain't Nobody's Business
TTITLE5=Misty Morning Ride
TTITLE6=Easy To Love
TTITLE7=Old Time Song - Old Time Love
TTITLE8=We Tune
EXTD=
EXTT0=
EXTT1=
EXTT2=
EXTT3=
EXTT4=
EXTT5=
EXTT6=
EXTT7=
EXTT8=
PLAYORDER=
